<svg xmlns="http://www.w3.org/2000/svg" viewBox="0 0 15.71997 14.92999"><defs><style>.a{fill:#b3b3b3;}.b{fill:#ccc;stroke:#333;stroke-miterlimit:10;stroke-width:0.1px;}.c{fill:none;}.d{fill:#fcf7f7;}</style></defs><path class="a" d="M13,2.32a1.1,1.1,0,1,0,1.1,1.1A1.09471,1.09471,0,0,0,13,2.32Zm0,1.61a.51.51,0,1,1,.51-.51A.51213.51213,0,0,1,13,3.93Z"/><path class="b" d="M13,.95a2.47,2.47,0,1,0,2.47,2.47A2.47534,2.47534,0,0,0,13,.95Zm0,4.26a1.79,1.79,0,1,1,1.79-1.79A1.78824,1.78824,0,0,1,13,5.21Z"/><path class="c" d="M13,2.32a1.1,1.1,0,1,0,1.1,1.1A1.09471,1.09471,0,0,0,13,2.32Zm0,1.61a.51.51,0,1,1,.51-.51A.51213.51213,0,0,1,13,3.93Z"/><path class="b" d="M13,2.32a1.1,1.1,0,1,0,1.1,1.1A1.09471,1.09471,0,0,0,13,2.32Zm0,1.61a.51.51,0,1,1,.51-.51A.51213.51213,0,0,1,13,3.93Z"/><path class="b" d="M10.23,12.23V14.16a.764.764,0,0,1-.77.77H.08v-2.7H.92V1.67H0V0H4.82V1.67H3.9V12.23Z"/><path class="d" d="M14.13,14.92a.34.34,0,0,1-.1.01H11.9v-.01Z"/><path class="b" d="M15.72,12.65V14.5a.42253.42253,0,0,1-.42.42H11.08a.41616.41616,0,0,1-.42-.42V12.65a.41617.41617,0,0,1,.42-.42H11.9V8.78h-.33a.51216.51216,0,0,1-.51-.51V6.99a.51432.51432,0,0,1,.51-.52h3.38V12.23h.35A.42254.42254,0,0,1,15.72,12.65Z"/></svg>